<svg id="color" height="512" viewBox="0 0 24 24" width="512" xmlns="http://www.w3.org/2000/svg"><path d="m12 7c-1.654 0-3-1.346-3-3s1.346-3 3-3 3 1.346 3 3-1.346 3-3 3z" fill="#90a4ae"/><path d="m7 11.75c-.136 0-.273-.027-.406-.086-.504-.225-.732-.815-.507-1.32l3-6.75c.224-.505.815-.732 1.32-.508.504.225.732.815.507 1.32l-3 6.75c-.166.373-.532.594-.914.594z" fill="#90a4ae"/><path d="m17 11.75c-.383 0-.749-.221-.914-.594l-3-6.75c-.225-.505.003-1.096.507-1.32.505-.226 1.095.003 1.32.508l3 6.75c.225.505-.003 1.096-.507 1.32-.132.059-.27.086-.406.086z" fill="#90a4ae"/><path d="m21.25 23h-18.5c-1.517 0-2.75-1.233-2.75-2.75v-7.5c0-1.517 1.233-2.75 2.75-2.75h18.5c1.517 0 2.75 1.233 2.75 2.75v7.5c0 1.517-1.233 2.75-2.75 2.75z" fill="#607d8b"/><g fill="#fff"><path d="m10.75 17.75h-2.5c-.414 0-.75-.336-.75-.75s.336-.75.75-.75h2.5c.414 0 .75.336.75.75s-.336.75-.75.75z"/><path d="m10.75 20h-1.5c-.965 0-1.75-.785-1.75-1.75v-2.5c0-.965.785-1.75 1.75-1.75h1.5c.414 0 .75.336.75.75s-.336.75-.75.75h-1.5c-.138 0-.25.112-.25.25v2.5c0 .138.112.25.25.25h1.5c.414 0 .75.336.75.75s-.336.75-.75.75z"/><path d="m5.75 20c-.414 0-.75-.336-.75-.75v-1.441c-.27.242-.729.242-1 0v1.441c0 .414-.336.75-.75.75s-.75-.336-.75-.75v-4.5c0-.348.239-.65.578-.729.34-.081.687.083.843.395l.579 1.157.579-1.158c.156-.311.503-.476.843-.395.339.08.578.382.578.73v4.5c0 .414-.336.75-.75.75z"/><path d="m15.75 20c-.268 0-.521-.144-.656-.386l-1.094-1.969v1.605c0 .414-.336.75-.75.75s-.75-.336-.75-.75v-4.5c0-.342.231-.641.562-.726.329-.087.678.063.844.361l1.094 1.97v-1.605c0-.414.336-.75.75-.75s.75.336.75.75v4.5c0 .342-.231.641-.562.726z"/><path d="m19.75 20h-.5c-.965 0-1.75-.785-1.75-1.75v-3.5c0-.414.336-.75.75-.75s.75.336.75.75v3.5c0 .138.112.25.25.25h.5c.138 0 .25-.112.25-.25v-3.5c0-.414.336-.75.75-.75s.75.336.75.75v3.5c0 .965-.785 1.75-1.75 1.75z"/></g><path d="m12 1c-1.576 0-2.872 1.222-2.991 2.768l.078-.174c.165-.373.53-.595.913-.595.136 0 .274.028.406.087.504.225.732.815.507 1.32l-.841 1.891c.523.439 1.195.703 1.928.703z" fill="#7d8f97"/><path d="m10 2.999c-.383 0-.749.222-.914.594l-.077.175-2.77 6.232h2.188l1.645-3.702.841-1.891c.225-.505-.003-1.096-.507-1.32-.132-.06-.27-.088-.406-.088z" fill="#7d8f97"/><path d="m7.5 17v-1.25c0-.965.785-1.75 1.75-1.75h1.5c.414 0 .75.336.75.75s-.336.75-.75.75h-1.5c-.138 0-.25.112-.25.25v.5h1.75c.414 0 .75.336.75.75s-.336.75-.75.75h-1.75v.5c0 .138.112.25.25.25h1.5c.414 0 .75.336.75.75s-.336.75-.75.75h-1.5c-.965 0-1.75-.785-1.75-1.75zm-3-1.427.579-1.158c.129-.258.39-.415.669-.415.058 0 .116.007.174.021.339.079.578.381.578.729v4.5c0 .414-.336.75-.75.75s-.75-.336-.75-.75v-1.441c-.135.121-.318.181-.5.181s-.365-.061-.5-.182v1.441c0 .415-.336.751-.75.751s-.75-.336-.75-.75v-4.5c0-.348.239-.65.578-.729.058-.014.116-.021.174-.021.279 0 .54.157.669.415zm7.5-5.573h-3.573-2.188-3.489c-1.517 0-2.75 1.233-2.75 2.75v7.5c0 1.517 1.233 2.75 2.75 2.75h9.25z" fill="#546d79"/><path d="m10.75 16.25h-1.75v1.5h1.75c.414 0 .75-.336.75-.75s-.336-.75-.75-.75z" fill="#dedede"/><path d="m10.75 14h-1.5c-.965 0-1.75.785-1.75 1.75v1.25 1.25c0 .965.785 1.75 1.75 1.75h1.5c.414 0 .75-.336.75-.75s-.336-.75-.75-.75h-1.5c-.138 0-.25-.112-.25-.25v-.5-1.5-.5c0-.138.112-.25.25-.25h1.5c.414 0 .75-.336.75-.75s-.336-.75-.75-.75z" fill="#dedede"/><path d="m5.748 14c-.279 0-.54.157-.669.415l-.579 1.158-.579-1.158c-.129-.258-.39-.415-.669-.415-.058 0-.116.007-.174.021-.339.079-.578.381-.578.729v4.5c0 .414.336.75.75.75s.75-.336.75-.75v-1.441c.135.121.318.182.5.182s.365-.061.5-.182v1.441c0 .414.336.75.75.75s.75-.336.75-.75v-4.5c0-.348-.239-.65-.578-.729-.058-.014-.116-.021-.174-.021z" fill="#dedede"/></svg>